<mxfile host="app.diagrams.net" agent="Mozilla/5.0 (Windows NT 10.0; Win64; x64) AppleWebKit/537.36 (KHTML, like Gecko) Chrome/132.0.0.0 Safari/537.36" version="26.0.10">
  <diagram name="PÃ¡gina-1" id="I1QGMYVmIt6hX_aSohIW">
    <mxGraphModel dx="5490" dy="2923" grid="1" gridSize="10" guides="1" tooltips="1" connect="1" arrows="1" fold="1" page="1" pageScale="1" pageWidth="827" pageHeight="1169" math="0" shadow="0">
      <root>
        <mxCell id="0" />
        <mxCell id="1" parent="0" />
        <mxCell id="NAehrUdtlbDnD5n-4TVU-1" value="&lt;p style=&quot;margin:0px;margin-top:4px;text-align:center;&quot;&gt;&lt;b&gt;AdvancedInventoryListingService&lt;/b&gt;&lt;/p&gt;&lt;hr size=&quot;1&quot; style=&quot;border-style:solid;&quot;&gt;&lt;p style=&quot;margin:0px;margin-left:4px;&quot;&gt;- headerLsm: HeaderLsm&lt;/p&gt;&lt;p style=&quot;margin:0px;margin-left:4px;&quot;&gt;- wsAccessService: WSAccessService&lt;/p&gt;&lt;p style=&quot;margin:0px;margin-left:4px;&quot;&gt;- restTemplate: RestTemplate&lt;/p&gt;&lt;p style=&quot;margin:0px;margin-left:4px;&quot;&gt;- httpRequestUtil: HttpRequestUtil&lt;/p&gt;&lt;p style=&quot;margin:0px;margin-left:4px;&quot;&gt;- filterUtil: FilterUtil&lt;/p&gt;&lt;p style=&quot;margin:0px;margin-left:4px;&quot;&gt;- userService: UserService&lt;/p&gt;&lt;p style=&quot;margin:0px;margin-left:4px;&quot;&gt;- fileUtil: FileUtil&lt;/p&gt;&lt;p style=&quot;margin:0px;margin-left:4px;&quot;&gt;- organizationService: OrganizationService&lt;/p&gt;&lt;p style=&quot;margin:0px;margin-left:4px;&quot;&gt;- applicationProperties: ApplicationProperties&lt;/p&gt;&lt;p style=&quot;margin:0px;margin-left:4px;&quot;&gt;- customerUtil: CustomerUtil&lt;/p&gt;&lt;p style=&quot;margin:0px;margin-left:4px;&quot;&gt;&lt;br&gt;&lt;/p&gt;&lt;p style=&quot;margin:0px;margin-left:4px;&quot;&gt;- quantitySimWithPagination: int&lt;/p&gt;&lt;p style=&quot;margin:0px;margin-left:4px;&quot;&gt;- quantityCharactersMultipleFilters: int&lt;/p&gt;&lt;p style=&quot;margin:0px;margin-left:4px;&quot;&gt;&lt;br&gt;&lt;/p&gt;&lt;p style=&quot;margin:0px;margin-left:4px;&quot;&gt;- ADVANCED_INVENTORY_LISTING: String&lt;/p&gt;&lt;p style=&quot;margin:0px;margin-left:4px;&quot;&gt;- ICCID: String&lt;/p&gt;&lt;p style=&quot;margin:0px;margin-left:4px;&quot;&gt;- CUSTOMER_ID: String&lt;/p&gt;&lt;p style=&quot;margin:0px;margin-left:4px;&quot;&gt;- CUSTOMER_NAME: String&lt;/p&gt;&lt;p style=&quot;margin:0px;margin-left:4px;&quot;&gt;- INVENTORY_CUSTOMER_ID: String&lt;/p&gt;&lt;p style=&quot;margin:0px;margin-left:4px;&quot;&gt;- PHASE_ID: String&lt;/p&gt;&lt;hr size=&quot;1&quot; style=&quot;border-style:solid;&quot;&gt;&lt;p style=&quot;margin:0px;margin-left:4px;&quot;&gt;+ findAllPaginatedWithFiltersList (field: String, value: String, filters: Map&amp;lt;String, List&amp;lt;String&amp;gt;&amp;gt;, size: int, page: int, totalItens: int): ResponseEntity&amp;lt;List&amp;lt;AdvancedInventoryListing&amp;gt;&amp;gt;&lt;/p&gt;&lt;p style=&quot;margin:0px;margin-left:4px;&quot;&gt;+ findAllAdvancedInventoryListingFiltered (size: int, page: int, field: String, value: String, filters: Map&amp;lt;String, List&amp;lt;String&amp;gt;&amp;gt;): ResponseEntity&amp;lt;List&amp;lt;AdvancedInventoryListing&amp;gt;&amp;gt;&lt;/p&gt;&lt;p style=&quot;margin:0px;margin-left:4px;&quot;&gt;+ findOneAdvancedInventoryListing (id: int): AdvancedInventoryListing&lt;/p&gt;&lt;p style=&quot;margin:0px;margin-left:4px;&quot;&gt;&lt;br&gt;&lt;/p&gt;&lt;p style=&quot;margin:0px;margin-left:4px;&quot;&gt;- getFilterByAuthority()&lt;/p&gt;&lt;p style=&quot;margin:0px;margin-left:4px;&quot;&gt;- getStringOfFiltersByList (filters: Map&amp;lt;String, List&amp;lt;String&amp;gt;&amp;gt;): String&lt;/p&gt;&lt;p style=&quot;margin:0px;margin-left:4px;&quot;&gt;- getField (field: String): String&lt;/p&gt;&lt;p style=&quot;margin:0px;margin-left:4px;&quot;&gt;&lt;br&gt;&lt;/p&gt;&lt;p style=&quot;margin:0px;margin-left:4px;&quot;&gt;+ getICCIDSByFile (file: File): ResponseEntity&amp;lt;?&amp;gt;&lt;/p&gt;&lt;p style=&quot;margin:0px;margin-left:4px;&quot;&gt;+ findByListICCID (size: int, page: int, listICCID: Map&amp;lt;String, List&amp;lt;String&amp;gt;): ResponseEntity&amp;lt;List&amp;lt;AdvancedInventoryListing&amp;gt;&amp;gt;&lt;/p&gt;&lt;p style=&quot;margin:0px;margin-left:4px;&quot;&gt;+ findFilterd&amp;nbsp; (size: int, page: int, field: String, value: String): ResponseEntity&amp;lt;List&amp;lt;AdvancedInventoryListing&amp;gt;&amp;gt;&lt;/p&gt;&lt;p style=&quot;margin:0px;margin-left:4px;&quot;&gt;+ findAllByListICCID (listICCID: List&amp;lt;String&amp;gt;): ResponseEntity&amp;lt;List&amp;lt;AdvancedInventoryListing&amp;gt;&amp;gt;&lt;/p&gt;&lt;p style=&quot;margin:0px;margin-left:4px;&quot;&gt;+ findByIccid (iccid: String): AdvancedInventoryListing&lt;/p&gt;&lt;p style=&quot;margin:0px;margin-left:4px;&quot;&gt;&lt;br&gt;&lt;/p&gt;&lt;p style=&quot;margin:0px;margin-left:4px;&quot;&gt;- getFiltersUrl (field: String, value: String): String&lt;/p&gt;&lt;p style=&quot;margin:0px;margin-left:4px;&quot;&gt;- iccidNotRegisteredWS (sims: List&amp;lt;AdvancedInventoryListing, list: List&amp;lt;String&amp;gt;): Integer&lt;/p&gt;&lt;p style=&quot;margin:0px;margin-left:4px;&quot;&gt;&lt;br&gt;&lt;/p&gt;&lt;p style=&quot;margin:0px;margin-left:4px;&quot;&gt;+ findListIccidsAdvancedInventory (iccids: List&amp;lt;String&amp;gt;): List&amp;lt;AdvancedInventoryListing&amp;gt;&lt;/p&gt;&lt;p style=&quot;margin:0px;margin-left:4px;&quot;&gt;&lt;br&gt;&lt;/p&gt;&lt;p style=&quot;margin:0px;margin-left:4px;&quot;&gt;// EXPORT&lt;/p&gt;&lt;p style=&quot;margin:0px;margin-left:4px;&quot;&gt;+ exportXLSX (langKey: String, field: String, value: String, filters: Map&amp;lt;String, List&amp;lt;Stirng&amp;gt;&amp;gt;, totalItens: int): InputStreamResource&lt;/p&gt;&lt;p style=&quot;margin:0px;margin-left:4px;&quot;&gt;&lt;br&gt;&lt;/p&gt;&lt;p style=&quot;margin:0px;margin-left:4px;&quot;&gt;- getToExport (field: String, value: String, filters: Map&amp;lt;String, List&amp;lt;String&amp;gt;&amp;gt;, totalItens: int): List&amp;lt;AdvancedInventoryListing&amp;gt;&lt;/p&gt;&lt;p style=&quot;margin:0px;margin-left:4px;&quot;&gt;- getFieldByValue (field: String, value: String): String&lt;/p&gt;&lt;p style=&quot;margin:0px;margin-left:4px;&quot;&gt;- generateXLSXReport (internalization: ResourceBundle, sims: List&amp;lt;AdvancedInventoryListing&amp;gt;): ByteArrayInputStream&lt;/p&gt;&lt;p style=&quot;margin:0px;margin-left:4px;&quot;&gt;&lt;br&gt;&lt;/p&gt;" style="verticalAlign=top;align=left;overflow=fill;html=1;whiteSpace=wrap;" parent="1" vertex="1">
          <mxGeometry x="160" y="160" width="1950" height="740" as="geometry" />
        </mxCell>
      </root>
    </mxGraphModel>
  </diagram>
</mxfile>
